<svg viewBox="0 0 1440 936" xmlns="http://www.w3.org/2000/svg"><style><![CDATA[:root>svg{display:none}:root>svg:target{display:block}]]></style><svg fill="none" viewBox="0 0 14 26" id="arrow" xmlns="http://www.w3.org/2000/svg"><path d="M1.11 0 0 1.118 11.803 13 0 24.882 1.11 26l12.36-12.441L14 13l-.531-.559L1.11 0Z" fill="#444"/></svg><svg fill="none" viewBox="0 0 1440 936" id="grid" xmlns="http://www.w3.org/2000/svg"><path opacity=".15" d="M0 57.5h1440M0 257.5h1440M0 457.5h1440M0 657.5h1440M0 857.501l1440-.001M0 1057.5h1440M0 157.5h1440M0 357.5h1440M0 557.5h1440M0 757.501l1440-.001M0 957.501h1440M0 1157.5h1440M1120.5-111v1440m300-1440v1440m-500-1440 .001 1440M1220.5-111v1440m-500-1440 .001 1440M520.5-111l.001 1440M320.5-111l.001 1440M120.5-111v1440m900-1440v1440m300-1440v1440m-500-1440 .001 1440M620.5-111l.001 1440M420.5-111l.001 1440M220.5-111v1440M20.5-111v1440" stroke="#2A2A2A"/></svg><svg fill="none" viewBox="0 0 20 16" id="mail" xmlns="http://www.w3.org/2000/svg"><path d="M2 16c-.55 0-1.021-.196-1.413-.588A1.922 1.922 0 0 1 0 14V2C0 1.45.196.979.588.587A1.922 1.922 0 0 1 2 0h16c.55 0 1.021.196 1.413.588.392.392.588.863.587 1.412v12c0 .55-.196 1.021-.588 1.413A1.922 1.922 0 0 1 18 16H2Zm8-7.175a1.056 1.056 0 0 0 .525-.15L17.6 4.25a.826.826 0 0 0 .4-.725.815.815 0 0 0-.425-.75c-.283-.167-.575-.158-.875.025L10 7 3.3 2.8c-.3-.183-.592-.187-.875-.012-.283.175-.425.421-.425.737a.92.92 0 0 0 .1.438.662.662 0 0 0 .3.287l7.075 4.425a1.052 1.052 0 0 0 .525.15Z" fill="#444"/></svg><svg fill="none" viewBox="0 0 20 20" id="nav" xmlns="http://www.w3.org/2000/svg"><path d="M10.75 19.75a.749.749 0 0 1-.75-.77v-8.6a.375.375 0 0 0-.375-.374H1.019a.764.764 0 0 1-.726-.5.75.75 0 0 1 .394-.93l18-8.258a.75.75 0 0 1 .995.993l-8.25 18a.749.749 0 0 1-.682.439Z" fill="#444"/></svg><svg viewBox="0 0 24 24" id="phone" xmlns="http://www.w3.org/2000/svg"><path d="M19.95 21c.3 0 .55-.1.75-.3.2-.2.3-.45.3-.75V15.9a.914.914 0 0 0-.225-.613 1.01 1.01 0 0 0-.575-.337l-3.45-.7a1.61 1.61 0 0 0-.713.063 1.402 1.402 0 0 0-.587.337L13.1 17a18.293 18.293 0 0 1-3.475-2.725A16.607 16.607 0 0 1 7 10.9l2.4-2.45c.15-.15.246-.321.288-.513.042-.192.046-.404.012-.637l-.65-3.5a.88.88 0 0 0-.325-.575A.96.96 0 0 0 8.1 3H4.05c-.3 0-.55.1-.75.3-.2.2-.3.45-.3.75 0 2.15.48 4.246 1.438 6.288a19.072 19.072 0 0 0 9.225 9.225c2.042.959 4.138 1.438 6.287 1.437Z" fill="#444"/></svg><svg viewBox="0 0 76 76" id="social--instagram" xmlns="http://www.w3.org/2000/svg"><path d="M21.333.5C9.83.5.5 9.83.5 21.333v33.334C.5 66.17 9.83 75.5 21.333 75.5h33.334C66.17 75.5 75.5 66.17 75.5 54.667V21.333C75.5 9.83 66.17.5 54.667.5H21.333ZM63 8.833c2.3 0 4.167 1.867 4.167 4.167S65.3 17.167 63 17.167A4.168 4.168 0 0 1 58.833 13c0-2.3 1.867-4.167 4.167-4.167Zm-25 8.334c11.504 0 20.833 9.329 20.833 20.833 0 11.504-9.329 20.833-20.833 20.833-11.504 0-20.833-9.329-20.833-20.833 0-11.504 9.329-20.833 20.833-20.833Zm0 8.333a12.5 12.5 0 1 0 0 25 12.5 12.5 0 0 0 0-25Z"/></svg><svg viewBox="0 0 92 92" id="social--telegram" xmlns="http://www.w3.org/2000/svg"><path d="M46 0c25.406 0 46 20.594 46 46S71.406 92 46 92 0 71.406 0 46 20.594 0 46 0Zm15.868 64.75c.846-2.596 4.81-28.468 5.3-33.566.148-1.544-.34-2.57-1.296-3.028-1.156-.556-2.868-.278-4.854.438-2.724.982-37.548 15.768-39.56 16.624-1.908.81-3.712 1.694-3.712 2.974 0 .9.534 1.406 2.006 1.932 1.532.546 5.39 1.716 7.668 2.344 2.194.606 4.692.08 6.092-.79 1.484-.922 18.61-12.382 19.84-13.386 1.228-1.004 2.208.282 1.204 1.288-1.004 1.004-12.76 12.414-14.31 13.994-1.882 1.918-.546 3.906.716 4.702 1.442.908 11.812 7.864 13.374 8.98 1.562 1.116 3.146 1.622 4.596 1.622 1.45 0 2.214-1.91 2.936-4.128Z"/></svg><svg viewBox="0 0 87 64" id="social--youtube" xmlns="http://www.w3.org/2000/svg"><path d="M83.797 11c-.797-4.398-4.594-7.602-9-8.602C68.203 1 56 0 42.797 0 29.602 0 17.203 1 10.602 2.398c-4.399 1-8.204 4-9 8.602C.797 16 0 23 0 32s.797 16 1.797 21c.805 4.398 4.601 7.602 9 8.602C17.797 63 29.797 64 43 64c13.203 0 25.203-1 32.203-2.398 4.399-1 8.195-4 9-8.602.797-5 1.797-12.203 2-21-.406-9-1.406-16-2.406-21ZM32 46V18l24.398 14L32 46Z"/></svg><svg fill="none" viewBox="0 0 815 471" id="time-icon" xmlns="http://www.w3.org/2000/svg"><path d="m251.621 265.312 77.483 44.735-17.821 10.289-62.872-36.299-34.979 20.195 62.873 36.299-17.822 10.289L181 306.085l70.621-40.773Zm81.083-46.813 77.484 44.735-17.711 10.225-20.588-11.887-16.383 9.458 6.863 19.812-18.928 10.928-7.195-22.815c-7.379 1.789-14.611 2.258-21.695 1.406-7.158-.895-13.763-3.089-19.814-6.583-5.977-3.451-9.741-7.2-11.29-11.247-1.624-4.09-1.07-8.244 1.66-12.462 2.657-4.261 7.38-8.351 14.169-12.27l33.428-19.3Zm-18.375 27.48c-5.091 2.939-7.822 5.879-8.191 8.819-.295 2.897 1.882 5.688 6.531 8.372 4.502 2.599 9.261 3.855 14.279 3.77 5.018-.085 10.036-1.576 15.054-4.473l15.718-9.075-28.115-16.233-15.276 8.82Zm111.618-64.443-24.795 14.315 62.873 36.3-17.711 10.225-62.872-36.299-24.684 14.251-14.611-8.436 67.189-38.792 14.611 8.436Zm59.631-21.902c9.446-5.453 18.781-8.414 28.005-8.883 9.298-.511 18.079 1.619 26.344 6.391 8.782 5.07 12.693 10.566 11.734 16.488-.96 5.837-6.494 11.673-16.604 17.51l-34.978 20.195-77.484-44.735 17.821-10.289 25.459 14.698 19.703-11.375Zm35.2 24.413c4.649-2.685 7.121-5.433 7.416-8.244.369-2.855-1.623-5.539-5.977-8.053-8.044-4.644-17.01-4.111-26.898 1.598l-16.161 9.33 25.459 14.699 16.161-9.33ZM330.046 322.874l77.483 44.735-17.71 10.225-62.872-36.299-26.566 15.338 15.607 9.65c10.626 6.561 18.67 12.227 24.131 16.999 5.387 4.729 8.265 9.118 8.634 13.165.369 3.962-2.399 7.648-8.302 11.056-2.435 1.406-5.793 2.876-10.073 4.41l-14.058-9.395a17.56 17.56 0 0 0 3.653-1.597c4.28-2.472 4.76-5.646 1.439-9.523-3.394-3.919-10.257-9.117-20.588-15.593l-30.33-18.789 59.552-34.382Zm142.44-9.383 14.389 8.308-59.994 34.637-77.483-44.735 58.555-33.807 14.39 8.308-40.734 23.518 16.825 9.714 35.974-20.77 13.947 8.053-35.974 20.769 17.932 10.353 42.173-24.348Zm25.221-70.544-24.795 14.315 62.872 36.299-17.71 10.225-62.872-36.299-24.684 14.251-14.612-8.435 67.19-38.792 14.611 8.436Z" fill="#212121" fill-opacity=".1"/><path d="m251.621 211.312 77.483 44.735-17.821 10.289-62.872-36.299-34.979 20.195 62.873 36.299-17.822 10.289L181 252.085l70.621-40.773Zm81.083-46.813 77.484 44.735-17.711 10.225-20.588-11.887-16.383 9.458 6.863 19.812-18.928 10.928-7.195-22.815c-7.379 1.789-14.611 2.258-21.695 1.406-7.158-.895-13.763-3.089-19.814-6.583-5.977-3.451-9.741-7.2-11.29-11.247-1.624-4.09-1.07-8.244 1.66-12.462 2.657-4.261 7.38-8.351 14.169-12.27l33.428-19.3Zm-18.375 27.48c-5.091 2.939-7.822 5.879-8.191 8.819-.295 2.897 1.882 5.688 6.531 8.372 4.502 2.599 9.261 3.855 14.279 3.77 5.018-.085 10.036-1.576 15.054-4.473l15.718-9.075-28.115-16.233-15.276 8.82Zm111.618-64.443-24.795 14.315 62.873 36.3-17.711 10.225-62.872-36.299-24.684 14.251-14.611-8.436 67.189-38.792 14.611 8.436Zm59.631-21.902c9.446-5.453 18.781-8.415 28.005-8.883 9.298-.511 18.079 1.619 26.344 6.391 8.782 5.07 12.693 10.566 11.734 16.488-.96 5.837-6.494 11.673-16.604 17.51l-34.978 20.195-77.484-44.735 17.821-10.289 25.459 14.698 19.703-11.375Zm35.2 24.413c4.649-2.685 7.121-5.433 7.416-8.244.369-2.855-1.623-5.539-5.977-8.053-8.044-4.644-17.01-4.111-26.898 1.598l-16.161 9.33 25.459 14.699 16.161-9.33ZM330.046 268.874l77.483 44.735-17.71 10.225-62.872-36.299-26.566 15.338 15.607 9.65c10.626 6.561 18.67 12.227 24.131 16.999 5.387 4.729 8.265 9.118 8.634 13.165.369 3.962-2.399 7.648-8.302 11.056-2.435 1.406-5.793 2.876-10.073 4.41l-14.058-9.395a17.56 17.56 0 0 0 3.653-1.597c4.28-2.472 4.76-5.646 1.439-9.523-3.394-3.919-10.257-9.117-20.588-15.593l-30.33-18.789 59.552-34.382Zm142.44-9.383 14.389 8.308-59.994 34.637-77.483-44.735 58.555-33.807 14.39 8.308-40.734 23.518 16.825 9.714 35.974-20.77 13.947 8.053-35.974 20.769 17.932 10.353 42.173-24.348Zm25.221-70.544-24.795 14.315 62.872 36.299-17.71 10.225-62.872-36.299-24.684 14.251-14.612-8.435 67.19-38.792 14.611 8.436Z" fill="#2A2A2A"/><circle cx="235.217" cy="235.217" r="234.717" transform="matrix(.86603 -.5 .86603 .5 0 235.217)" stroke="#2A2A2A" stroke-dasharray="5 5"/><circle cx="11" cy="11" r="11" transform="matrix(.86603 -.5 .86603 .5 101 229)" fill="#2A2A2A"/><circle cx="11" cy="11" r="11" transform="matrix(.86603 -.5 .86603 .5 557 370)" fill="#2A2A2A"/><circle cx="11" cy="11" r="11" transform="matrix(.86603 -.5 .86603 .5 304 74)" fill="#2A2A2A"/></svg></svg>