<?xml version="1.0" standalone="no"?>
<!DOCTYPE svg PUBLIC "-//W3C//DTD SVG 20010904//EN"
 "http://www.w3.org/TR/2001/REC-SVG-20010904/DTD/svg10.dtd">
<svg version="1.0" xmlns="http://www.w3.org/2000/svg"
 width="112.000000pt" height="112.000000pt" viewBox="0 0 112.000000 112.000000"
 preserveAspectRatio="xMidYMid meet">
<metadata>
Created by potrace 1.14, written by Peter Selinger 2001-2017
</metadata>
<g transform="translate(0.000000,112.000000) scale(0.100000,-0.100000)"
fill="#000000" stroke="none">
<path d="M243 885 c-98 -27 -173 -87 -215 -174 -33 -65 -32 -177 0 -243 33
-67 104 -133 171 -160 53 -22 69 -23 331 -23 151 0 288 3 303 7 88 21 178 92
220 172 31 60 30 182 -2 250 -33 66 -99 128 -169 157 -54 22 -70 23 -322 26
-204 1 -277 -1 -317 -12z"/>
</g>
</svg>
